<?xml version="1.0" encoding="UTF-8" standalone="no"?><!DOCTYPE svg PUBLIC "-//W3C//DTD SVG 1.1//EN" "http://www.w3.org/Graphics/SVG/1.1/DTD/svg11.dtd"><svg width="100%" height="100%" viewBox="0 0 32 32" version="1.1" xmlns="http://www.w3.org/2000/svg" xmlns:xlink="http://www.w3.org/1999/xlink" xml:space="preserve" xmlns:serif="http://www.serif.com/" style="fill-rule:evenodd;clip-rule:evenodd;stroke-linejoin:round;stroke-miterlimit:1.41421;"><path d="M32,0l0,32l-32,0l0,-32l32,0Zm-15.94,23.74c0.461,0.04 0.838,0.423 0.868,0.887c0.031,1.47 0.031,2.942 0,4.413c-0.059,0.903 -1.773,1.277 -1.856,0c-0.031,-1.471 -0.031,-2.943 0,-4.413c0.032,-0.496 0.451,-0.91 0.988,-0.887Zm6.093,-2.539c0.229,0.01 0.437,0.095 0.607,0.248c1.056,1.018 2.094,2.055 3.112,3.111c0.603,0.672 -0.352,2.115 -1.287,1.335c-1.1,-0.987 -2.111,-2.07 -3.137,-3.133c-0.489,-0.545 -0.168,-1.569 0.705,-1.561Zm-12.239,0c0.713,0.046 1.137,1.005 0.638,1.561c-1.019,1.055 -2.056,2.092 -3.112,3.11c-0.693,0.622 -2.02,-0.466 -1.335,-1.287c0.987,-1.1 2.071,-2.11 3.135,-3.136c0.186,-0.167 0.423,-0.254 0.674,-0.248Zm19.126,-6.129c0.927,0.06 1.162,1.781 0,1.856c-1.471,0.031 -2.943,0.031 -4.413,0c-0.942,-0.061 -1.078,-1.786 0,-1.856c1.47,-0.031 2.942,-0.031 4.413,0Zm-21.667,0c0.942,0.061 1.078,1.786 0,1.856c-1.47,0.031 -2.942,0.031 -4.413,0c-0.884,-0.057 -1.315,-1.771 0,-1.856c1.471,-0.031 2.943,-0.031 4.413,0Zm-0.54,-9.193c0.229,0.011 0.436,0.096 0.607,0.249c1.056,1.018 2.094,2.056 3.112,3.112c0.622,0.693 -0.466,2.019 -1.287,1.334c-1.1,-0.987 -2.111,-2.07 -3.137,-3.134c-0.489,-0.545 -0.168,-1.569 0.705,-1.561Zm18.401,0.001c0.703,0.044 1.145,0.995 0.638,1.56c-1.018,1.056 -2.056,2.094 -3.112,3.112c-0.693,0.622 -2.019,-0.466 -1.334,-1.287c0.987,-1.1 2.07,-2.111 3.134,-3.137c0.187,-0.168 0.423,-0.255 0.674,-0.248Zm-9.214,-3.808c0.476,0.02 0.877,0.41 0.908,0.888c0.031,1.471 0.031,2.943 0,4.413c-0.06,0.928 -1.781,1.163 -1.856,0c-0.031,-1.47 -0.031,-2.942 0,-4.413c0.032,-0.485 0.439,-0.888 0.948,-0.888Z" style="fill:#fff;"/></svg>