<?xml version="1.0" encoding="UTF-8" standalone="no"?><!DOCTYPE svg PUBLIC "-//W3C//DTD SVG 1.1//EN" "http://www.w3.org/Graphics/SVG/1.1/DTD/svg11.dtd"><svg width="100%" height="100%" viewBox="0 0 64 64" version="1.1" xmlns="http://www.w3.org/2000/svg" xmlns:xlink="http://www.w3.org/1999/xlink" xml:space="preserve" xmlns:serif="http://www.serif.com/" style="fill-rule:evenodd;clip-rule:evenodd;stroke-miterlimit:2;"><path d="M11,1.652l0,60.696l0.73,0.652l40.794,0l0.476,-0.652l0,-50.348l-11,-11l-30.236,0l-0.764,0.652Z" style="fill:#fff;stroke:#282725;stroke-width:2px;"/><path d="M41,1l0,12l12,0" style="fill:none;stroke:#282725;stroke-width:2px;stroke-miterlimit:1;"/><path d="M16,8l20,0" style="fill:none;stroke:#282725;stroke-width:4px;stroke-linejoin:round;stroke-miterlimit:1.5;"/><path d="M16,21l32,0" style="fill:none;stroke:#282725;stroke-width:2px;stroke-linejoin:round;stroke-miterlimit:1.5;"/><path d="M16,27l32,0" style="fill:none;stroke:#282725;stroke-width:2px;stroke-linejoin:round;stroke-miterlimit:1.5;"/><path d="M16,33l32,0" style="fill:none;stroke:#282725;stroke-width:2px;stroke-linejoin:round;stroke-miterlimit:1.5;"/><path d="M16,39l32,0" style="fill:none;stroke:#282725;stroke-width:2px;stroke-linejoin:round;stroke-miterlimit:1.5;"/><path d="M16,45l32,0" style="fill:none;stroke:#282725;stroke-width:2px;stroke-linejoin:round;stroke-miterlimit:1.5;"/><path d="M16,51l32,0" style="fill:none;stroke:#282725;stroke-width:2px;stroke-linejoin:round;stroke-miterlimit:1.5;"/><path d="M16,57l16,0" style="fill:none;stroke:#282725;stroke-width:2px;stroke-linejoin:round;stroke-miterlimit:1.5;"/><path d="M16,15l20,0" style="fill:none;stroke:#282725;stroke-width:2px;stroke-linejoin:round;stroke-miterlimit:1.5;"/></svg>