<?xml version="1.0" encoding="UTF-8" standalone="no"?><!DOCTYPE svg PUBLIC "-//W3C//DTD SVG 1.1//EN" "http://www.w3.org/Graphics/SVG/1.1/DTD/svg11.dtd"><svg width="100%" height="100%" viewBox="0 0 64 64" version="1.1" xmlns="http://www.w3.org/2000/svg" xmlns:xlink="http://www.w3.org/1999/xlink" xml:space="preserve" xmlns:serif="http://www.serif.com/" style="fill-rule:evenodd;clip-rule:evenodd;stroke-miterlimit:2;"><path d="M11,9l0,2.999l-7,13.001l0,20l7,15.032l0,2.316l0.73,0.652l40.794,0l0.476,-0.652l0,-2.305l7,-15.043l0,-20l-7,-12.839l0,-3.161l-42,0Z" style="fill:#fff;stroke:#282725;stroke-width:2px;"/><rect x="8" y="5" width="48" height="4" style="fill:#fff;stroke:#282725;stroke-width:2px;stroke-linejoin:bevel;"/><rect x="23" y="1" width="18" height="4" style="fill:#fff;stroke:#282725;stroke-width:2px;stroke-linejoin:bevel;"/><path d="M18,14l-5,11l0,20l5,13" style="fill:none;stroke:#282725;stroke-width:2px;stroke-miterlimit:1;"/><path d="M45,14l5,11l0,20l-5,13" style="fill:none;stroke:#282725;stroke-width:2px;stroke-miterlimit:1;"/><path d="M35.5,16l4,9l0,20l-4,11" style="fill:none;stroke:#282725;stroke-width:2px;stroke-miterlimit:1;"/><path d="M27.5,16l-4,9l0,20l4,11" style="fill:none;stroke:#282725;stroke-width:2px;stroke-miterlimit:1;"/></svg>